#!OML:ASF F:\VICON\USERDATA\INSTALL\rory3\rory3.ASF
:FULLY-SPECIFIED
:DEGREES
542
root 0.278356 17.1549 37.9654 10.2014 -10.785 -5.99755
lowerback -5.94406 3.45758 4.29188
upperback -3.78953 4.38504 2.00294
thorax -0.423871 2.14095 -0.0914212
lowerneck -15.1719 -0.0137029 1.72989
upperneck 43.9356 -0.587283 -0.35649
head 19.5346 0.00731894 -0.613426
rclavicle 1.52195e-014 -5.96354e-015
rhumerus -35.4526 -3.66609 -76.2692
rradius 42.5636
rwrist -18.5856
rhand -4.64876 10.4421
rfingers 7.12502
rthumb 21.1309 -18.4264
lclavicle 1.52195e-014 -5.96354e-015
lhumerus -53.049 32.2874 56.2165
lradius 26.3732
lwrist -4.47634
lhand 0.735187 21.0804
lfingers 7.12502
lthumb 26.2944 49.2781
rfemur -2.94073 22.2627 30.2459
rtibia 15.0642
rfoot -12.4424 -11.9464
rtoes 5.02477
lfemur -36.6822 -19.3311 2.24599
ltibia 19.8692
lfoot -20.7141 18.5697
ltoes -21.2908
543
root 0.32108 17.1514 38.1216 10.4559 -10.6075 -6.63169
lowerback -6.5356 3.33427 5.37007
upperback -3.92774 4.12668 2.10663
thorax -0.186081 1.99629 -0.564181
lowerneck -15.3935 -0.032411 1.69326
upperneck 44.2227 -0.6108 -0.393433
head 19.7923 -0.0142143 -0.635125
rclavicle -2.64011e-015 2.3059e-014
rhumerus -35.6938 -3.39952 -76.4064
rradius 42.4912
rwrist -18.637
rhand -4.65233 10.8498
rfingers 7.12502
rthumb 21.1274 -18.0191
lclavicle -2.64011e-015 2.3059e-014
lhumerus -53.5003 31.7174 56.0737
lradius 26.9725
lwrist -3.77627
lhand 0.692946 20.9335
lfingers 7.12502
lthumb 26.2539 49.1372
rfemur -2.35885 21.1151 30.7062
rtibia 14.9345
rfoot -12.8474 -10.8639
rtoes 5.62698
lfemur -36.8631 -20.4528 3.32317
ltibia 19.7132
lfoot -20.8377 18.159
ltoes -19.4513
544
root 0.352769 17.1524 38.2441 10.6789 -10.7811 -6.77148
lowerback -6.80916 3.27405 5.68918
upperback -4.09597 4.01391 2.10276
thorax -0.195033 1.93129 -0.74169
lowerneck -15.6224 -0.101564 1.57417
upperneck 44.3676 -0.689039 -0.413219
head 19.9577 -0.0703553 -0.643696
rclavicle -3.29486e-014 -9.93923e-015
rhumerus -35.9867 -3.2588 -76.5121
rradius 42.5518
rwrist -18.9321
rhand -4.70739 11.2361
rfingers 7.12502
rthumb 21.0745 -17.6387
lclavicle -3.29486e-014 -9.93923e-015
lhumerus -53.5357 31.2156 56.1338
lradius 27.3289
lwrist -3.09684
lhand 0.454468 21.0475
lfingers 7.12502
lthumb 26.0256 49.285
rfemur -2.38414 20.5426 30.6351
rtibia 15.2468
rfoot -12.4935 -10.2509
rtoes 7.92705
lfemur -36.8199 -20.8628 3.57043
ltibia 19.4483
lfoot -19.9695 18.3405
ltoes -20.8635
545
root 0.383823 17.1376 38.3698 10.8452 -11.1008 -6.78921
lowerback -7.23766 3.24324 5.82148
upperback -3.98973 3.92373 2.07539
thorax 0.156943 1.8926 -0.821154
lowerneck -15.9464 -0.16966 1.44912
upperneck 44.1597 -0.782387 -0.382104
head 19.9107 -0.129477 -0.626129
rclavicle -2.28602e-014 -7.35503e-015
rhumerus -35.7794 -3.37798 -76.6138
rradius 42.3725
rwrist -19.2354
rhand -4.9805 12.374
rfingers 7.12502
rthumb 20.8121 -16.5298
lclavicle -2.28602e-014 -7.35503e-015
lhumerus -53.1226 31.3137 56.0865
lradius 27.4204
lwrist -2.78751
lhand 0.284917 21.1963
lfingers 7.12502
lthumb 25.8632 49.4576
rfemur -2.03931 20.105 30.4285
rtibia 15.0953
rfoot -12.4627 -9.68867
rtoes 8.36137
lfemur -36.8715 -21.1519 3.58379
ltibia 19.6793
lfoot -18.8788 18.6464
ltoes -22.8488
546
root 0.402867 17.1018 38.4447 11.0552 -11.6694 -7.19649
lowerback -6.84596 3.31578 6.00625
upperback -4.10745 4.04629 2.21088
thorax -0.173217 1.94267 -0.800862
lowerneck -15.8097 -0.316295 1.10845
upperneck 43.6949 -0.996364 -0.14601
head 19.5584 -0.246888 -0.487098
rclavicle 3.19671e-014 1.51076e-014
rhumerus -35.6585 -3.39384 -76.6129
rradius 42.2854
rwrist -19.4391
rhand -5.15037 12.558
rfingers 7.12502
rthumb 20.6489 -16.3636
lclavicle 3.19671e-014 1.51076e-014
lhumerus -52.8232 31.2959 56.0275
lradius 27.3729
lwrist -2.63162
lhand -0.0413355 20.929
lfingers 7.12502
lthumb 25.5508 49.2355
rfemur -1.99693 20.7244 30.7322
rtibia 15.3111
rfoot -12.7186 -9.7443
rtoes 7.51634
lfemur -36.8503 -20.6125 3.90365
ltibia 19.9174
lfoot -17.6133 17.8547
ltoes -21.6535
547
root 0.436505 17.0857 38.5785 11.061 -12.1466 -6.87569
lowerback -6.59094 3.18465 5.71468
upperback -4.78937 3.9427 2.17399
thorax -1.04412 1.86524 -0.723232
lowerneck -14.5557 -0.357625 0.944728
upperneck 43.626 -1.01954 -0.105571
head 19.1518 -0.290199 -0.436313
rclavicle 7.41094e-015 1.39149e-014
rhumerus -37.0188 -2.77989 -76.698
rradius 42.6022
rwrist -19.6123
rhand -5.0049 12.6671
rfingers 7.12502
rthumb 20.7887 -16.2392
lclavicle 7.41094e-015 1.39149e-014
lhumerus -54.1563 30.8142 54.9296
lradius 27.3941
lwrist -2.4956
lhand -0.159544 20.7901
lfingers 7.12502
lthumb 25.4375 49.1127
rfemur -1.74134 20.514 30.1786
rtibia 15.7112
rfoot -13.2409 -8.22668
rtoes 9.49553
lfemur -36.5071 -20.7678 3.30679
ltibia 20.132
lfoot -16.8282 16.952
ltoes -16.6647
548
root 0.458299 17.0672 38.6938 11.2908 -12.5236 -7.1899
lowerback -8.20356 3.50829 6.37621
upperback -3.28681 4.11769 1.97483
thorax 1.4742 2.02319 -1.12851
lowerneck -17.972 -0.649723 0.923943
upperneck 43.5202 -1.60112 0.0465239
head 20.077 -0.482927 -0.501141
rclavicle 4.01452e-014 2.33572e-014
rhumerus -34.4918 -4.45043 -76.7303
rradius 42.3763
rwrist -19.4123
rhand -4.83648 12.6957
rfingers 7.12502
rthumb 20.9505 -16.1928
lclavicle 4.01452e-014 2.33572e-014
lhumerus -50.9252 32.5493 55.7813
lradius 26.8464
lwrist -3.35411
lhand -0.270505 20.6123
lfingers 7.12502
lthumb 25.3313 48.95
rfemur -1.66526 20.8661 30.3936
rtibia 16.1182
rfoot -13.7034 -6.95745
rtoes 11.2251
lfemur -36.4479 -20.5115 3.4534
ltibia 20.4956
lfoot -15.1344 16.4782
ltoes -15.4204
